<mxfile host="app.diagrams.net" agent="Mozilla/5.0 (X11; Linux x86_64; rv:131.0) Gecko/20100101 Firefox/131.0" version="24.8.6">
  <diagram name="Страница — 1" id="DVwbKLpDRyYFvCA7PuTb">
    <mxGraphModel dx="2953" dy="737" grid="1" gridSize="10" guides="1" tooltips="1" connect="1" arrows="1" fold="1" page="1" pageScale="1" pageWidth="827" pageHeight="1169" math="0" shadow="0">
      <root>
        <mxCell id="0" />
        <mxCell id="1" parent="0" />
        <mxCell id="y0IBjX7_YituP-SktYeg-1" value="" style="strokeWidth=1;shadow=0;dashed=0;align=center;html=1;shape=mxgraph.mockup.containers.browserWindow;rSize=0;strokeColor=#666666;strokeColor2=#008cff;strokeColor3=#c4c4c4;mainText=,;recursiveResize=0;" vertex="1" parent="1">
          <mxGeometry x="-13" y="10" width="840" height="740" as="geometry" />
        </mxCell>
        <mxCell id="y0IBjX7_YituP-SktYeg-2" value="KoloOnline" style="strokeWidth=1;shadow=0;dashed=0;align=center;html=1;shape=mxgraph.mockup.containers.anchor;fontSize=17;fontColor=#666666;align=left;whiteSpace=wrap;" vertex="1" parent="y0IBjX7_YituP-SktYeg-1">
          <mxGeometry x="60" y="12" width="110" height="26" as="geometry" />
        </mxCell>
        <mxCell id="y0IBjX7_YituP-SktYeg-3" value="https://www.koloonline.com" style="strokeWidth=1;shadow=0;dashed=0;align=center;html=1;shape=mxgraph.mockup.containers.anchor;rSize=0;fontSize=17;fontColor=#666666;align=left;" vertex="1" parent="y0IBjX7_YituP-SktYeg-1">
          <mxGeometry x="130" y="60" width="250" height="26" as="geometry" />
        </mxCell>
        <mxCell id="y0IBjX7_YituP-SktYeg-4" value="" style="strokeWidth=1;shadow=0;dashed=0;align=center;html=1;shape=mxgraph.mockup.forms.rrect;rSize=0;strokeColor=#999999;fillColor=#ffffff;" vertex="1" parent="y0IBjX7_YituP-SktYeg-1">
          <mxGeometry x="303" y="220" width="220" height="395" as="geometry" />
        </mxCell>
        <mxCell id="y0IBjX7_YituP-SktYeg-5" value="&lt;div&gt;Login&lt;/div&gt;" style="strokeWidth=1;shadow=0;dashed=0;align=center;html=1;shape=mxgraph.mockup.forms.anchor;fontSize=12;fontColor=#666666;align=left;resizeWidth=1;spacingLeft=0;" vertex="1" parent="y0IBjX7_YituP-SktYeg-4">
          <mxGeometry width="40" height="20" relative="1" as="geometry">
            <mxPoint x="50" y="61" as="offset" />
          </mxGeometry>
        </mxCell>
        <mxCell id="y0IBjX7_YituP-SktYeg-6" value="" style="shape=line;strokeColor=#ddeeff;strokeWidth=2;html=1;resizeWidth=1;" vertex="1" parent="y0IBjX7_YituP-SktYeg-4">
          <mxGeometry width="60" height="10" relative="1" as="geometry">
            <mxPoint x="122" y="80" as="offset" />
          </mxGeometry>
        </mxCell>
        <mxCell id="y0IBjX7_YituP-SktYeg-7" value="Password" style="strokeWidth=1;shadow=0;dashed=0;align=center;html=1;shape=mxgraph.mockup.forms.anchor;fontSize=12;fontColor=#666666;align=left;resizeWidth=1;spacingLeft=0;" vertex="1" parent="y0IBjX7_YituP-SktYeg-4">
          <mxGeometry width="110.00000000000001" height="20" relative="1" as="geometry">
            <mxPoint x="28" y="209" as="offset" />
          </mxGeometry>
        </mxCell>
        <mxCell id="y0IBjX7_YituP-SktYeg-8" value="********" style="strokeWidth=1;shadow=0;dashed=0;align=center;html=1;shape=mxgraph.mockup.forms.rrect;rSize=0;strokeColor=#999999;fontColor=#666666;align=left;spacingLeft=5;resizeWidth=1;" vertex="1" parent="y0IBjX7_YituP-SktYeg-4">
          <mxGeometry width="165" height="25" relative="1" as="geometry">
            <mxPoint x="28" y="229" as="offset" />
          </mxGeometry>
        </mxCell>
        <mxCell id="y0IBjX7_YituP-SktYeg-9" value="Confirm Password" style="strokeWidth=1;shadow=0;dashed=0;align=center;html=1;shape=mxgraph.mockup.forms.anchor;fontSize=12;fontColor=#666666;align=left;resizeWidth=1;spacingLeft=0;" vertex="1" parent="y0IBjX7_YituP-SktYeg-4">
          <mxGeometry width="110.00000000000001" height="20" relative="1" as="geometry">
            <mxPoint x="28" y="269" as="offset" />
          </mxGeometry>
        </mxCell>
        <mxCell id="y0IBjX7_YituP-SktYeg-10" value="********" style="strokeWidth=1;shadow=0;dashed=0;align=center;html=1;shape=mxgraph.mockup.forms.rrect;rSize=0;strokeColor=#999999;fontColor=#666666;align=left;spacingLeft=5;resizeWidth=1;" vertex="1" parent="y0IBjX7_YituP-SktYeg-4">
          <mxGeometry width="165" height="25" relative="1" as="geometry">
            <mxPoint x="28" y="289" as="offset" />
          </mxGeometry>
        </mxCell>
        <mxCell id="y0IBjX7_YituP-SktYeg-11" value="Register" style="strokeWidth=1;shadow=0;dashed=0;align=center;html=1;shape=mxgraph.mockup.forms.rrect;rSize=5;strokeColor=none;fontColor=#ffffff;fillColor=#66bbff;fontSize=16;fontStyle=1;" vertex="1" parent="y0IBjX7_YituP-SktYeg-4">
          <mxGeometry y="1" width="80" height="30" relative="1" as="geometry">
            <mxPoint x="70" y="-60" as="offset" />
          </mxGeometry>
        </mxCell>
        <mxCell id="y0IBjX7_YituP-SktYeg-12" value="Register" style="strokeWidth=1;shadow=0;dashed=0;align=center;html=1;shape=mxgraph.mockup.forms.anchor;fontSize=12;fontColor=#666666;align=left;resizeWidth=1;spacingLeft=0;" vertex="1" parent="y0IBjX7_YituP-SktYeg-4">
          <mxGeometry x="129" y="59.999514824797856" width="40" height="22.57142857142857" as="geometry" />
        </mxCell>
        <mxCell id="y0IBjX7_YituP-SktYeg-13" value="&lt;font style=&quot;font-size: 18px;&quot;&gt;KoloOnline&lt;/font&gt;" style="strokeWidth=1;shadow=0;dashed=0;align=center;html=1;shape=mxgraph.mockup.forms.anchor;fontSize=12;fontColor=#666666;align=left;resizeWidth=1;spacingLeft=0;" vertex="1" parent="y0IBjX7_YituP-SktYeg-4">
          <mxGeometry x="70" y="22.358490566037737" width="59" height="22.56716981132076" as="geometry" />
        </mxCell>
        <mxCell id="y0IBjX7_YituP-SktYeg-32" value="Full Name" style="strokeWidth=1;shadow=0;dashed=0;align=center;html=1;shape=mxgraph.mockup.forms.anchor;fontSize=12;fontColor=#666666;align=left;resizeWidth=1;spacingLeft=0;" vertex="1" parent="y0IBjX7_YituP-SktYeg-4">
          <mxGeometry width="110.00000000000001" height="20" relative="1" as="geometry">
            <mxPoint x="28" y="95" as="offset" />
          </mxGeometry>
        </mxCell>
        <mxCell id="y0IBjX7_YituP-SktYeg-31" value="" style="strokeWidth=1;shadow=0;dashed=0;align=center;html=1;shape=mxgraph.mockup.forms.rrect;rSize=0;strokeColor=#999999;fontColor=#666666;align=left;spacingLeft=5;resizeWidth=1;" vertex="1" parent="y0IBjX7_YituP-SktYeg-4">
          <mxGeometry width="165" height="25" relative="1" as="geometry">
            <mxPoint x="28" y="115" as="offset" />
          </mxGeometry>
        </mxCell>
        <mxCell id="y0IBjX7_YituP-SktYeg-33" value="Email" style="strokeWidth=1;shadow=0;dashed=0;align=center;html=1;shape=mxgraph.mockup.forms.anchor;fontSize=12;fontColor=#666666;align=left;resizeWidth=1;spacingLeft=0;" vertex="1" parent="y0IBjX7_YituP-SktYeg-4">
          <mxGeometry width="110.00000000000001" height="20" relative="1" as="geometry">
            <mxPoint x="28" y="155" as="offset" />
          </mxGeometry>
        </mxCell>
        <mxCell id="y0IBjX7_YituP-SktYeg-34" value="" style="strokeWidth=1;shadow=0;dashed=0;align=center;html=1;shape=mxgraph.mockup.forms.rrect;rSize=0;strokeColor=#999999;fontColor=#666666;align=left;spacingLeft=5;resizeWidth=1;" vertex="1" parent="y0IBjX7_YituP-SktYeg-4">
          <mxGeometry width="165" height="25" relative="1" as="geometry">
            <mxPoint x="28" y="175" as="offset" />
          </mxGeometry>
        </mxCell>
      </root>
    </mxGraphModel>
  </diagram>
</mxfile>
